<svg xmlns="http://www.w3.org/2000/svg" width="41.081" height="41.081" viewBox="0 0 41.081 41.081">
  <circle id="Ellipse_19" data-name="Ellipse 19" cx="20.541" cy="20.541" r="20.541" fill="#00c4cc"/>
  <path id="Exclusion_1" data-name="Exclusion 1" d="M-1980.757,18.487c-2.524,0-2.821-.01-3.81-.056a6.87,6.87,0,0,1-2.245-.43,4.541,4.541,0,0,1-1.638-1.066,4.566,4.566,0,0,1-1.066-1.638,6.838,6.838,0,0,1-.429-2.244c-.045-1.01-.056-1.343-.056-3.811,0-2.546.01-2.84.056-3.81a6.847,6.847,0,0,1,.429-2.245,4.543,4.543,0,0,1,1.066-1.638,4.57,4.57,0,0,1,1.638-1.066,6.848,6.848,0,0,1,2.245-.429c1.009-.045,1.341-.056,3.81-.056,2.547,0,2.841.01,3.811.056a6.846,6.846,0,0,1,2.244.429,4.5,4.5,0,0,1,1.638,1.066A4.581,4.581,0,0,1-1972,3.189a6.887,6.887,0,0,1,.43,2.245c.042.962.055,1.252.055,3.81,0,2.541-.01,2.836-.055,3.811A6.894,6.894,0,0,1-1972,15.3a4.543,4.543,0,0,1-1.066,1.638A4.565,4.565,0,0,1-1974.7,18a6.859,6.859,0,0,1-2.244.43C-1977.924,18.474-1978.219,18.487-1980.757,18.487Zm0-16.638c-2.261,0-2.644.006-3.724.054a5.028,5.028,0,0,0-1.661.307,2.674,2.674,0,0,0-1,.65,2.678,2.678,0,0,0-.65,1,5.021,5.021,0,0,0-.306,1.661c-.049,1.026-.054,1.374-.054,3.724,0,2.261.006,2.644.054,3.724a5.019,5.019,0,0,0,.306,1.661,2.7,2.7,0,0,0,.648,1,2.7,2.7,0,0,0,1,.65,5.063,5.063,0,0,0,1.663.308c1.03.048,1.378.053,3.724.053,2.258,0,2.641-.005,3.724-.053a5.086,5.086,0,0,0,1.661-.306,2.708,2.708,0,0,0,1-.649,2.686,2.686,0,0,0,.651-1,5.089,5.089,0,0,0,.307-1.664c.048-1.028.053-1.376.053-3.724,0-2.256-.005-2.639-.053-3.724a5.052,5.052,0,0,0-.307-1.661,2.715,2.715,0,0,0-.65-1,2.683,2.683,0,0,0-1-.651,5.038,5.038,0,0,0-1.662-.306C-1978.061,1.854-1978.409,1.849-1980.757,1.849Zm0,12.016a4.627,4.627,0,0,1-4.621-4.622,4.627,4.627,0,0,1,4.621-4.622,4.627,4.627,0,0,1,4.621,4.622A4.627,4.627,0,0,1-1980.757,13.865Zm0-7.394a2.776,2.776,0,0,0-2.773,2.773,2.776,2.776,0,0,0,2.773,2.773,2.776,2.776,0,0,0,2.773-2.773A2.776,2.776,0,0,0-1980.757,6.47Zm4.853-.924a1.156,1.156,0,0,1-1.156-1.155,1.157,1.157,0,0,1,1.156-1.156,1.157,1.157,0,0,1,1.156,1.156A1.156,1.156,0,0,1-1975.9,5.546Z" transform="translate(2001.297 12.324)" fill="#fff"/>
</svg>
