<svg xmlns="http://www.w3.org/2000/svg" xmlns:xlink="http://www.w3.org/1999/xlink" width="469" height="838" viewBox="0 0 469 838">
  <defs>
    <filter id="Card_Base" x="0" y="0" width="469" height="838" filterUnits="userSpaceOnUse">
      <feOffset dy="3" input="SourceAlpha"/>
      <feGaussianBlur stdDeviation="10" result="blur"/>
      <feFlood flood-opacity="0.031"/>
      <feComposite operator="in" in2="blur"/>
      <feComposite in="SourceGraphic"/>
    </filter>
    <filter id="Card_Base-2" x="0" y="0" width="469" height="838" filterUnits="userSpaceOnUse">
      <feOffset dy="3" input="SourceAlpha"/>
      <feGaussianBlur stdDeviation="10" result="blur-2"/>
      <feFlood flood-opacity="0.031"/>
      <feComposite operator="in" in2="blur-2"/>
      <feComposite in="SourceGraphic"/>
    </filter>
    <clipPath id="clip-path">
      <g transform="matrix(1, 0, 0, 1, 0, 0)" filter="url(#Card_Base)">
        <rect id="Card_Base-3" data-name="Card Base" width="409" height="778" transform="translate(1297 151)" fill="#9837ff"/>
      </g>
    </clipPath>
    <filter id="Rectangle_75" x="-55.049" y="287.946" width="958.687" height="1100.108" filterUnits="userSpaceOnUse">
      <feOffset dy="3" input="SourceAlpha"/>
      <feGaussianBlur stdDeviation="49.5" result="blur-3"/>
      <feFlood flood-opacity="0.161"/>
      <feComposite operator="in" in2="blur-3"/>
      <feComposite in="SourceGraphic"/>
    </filter>
    <filter id="Rectangle_76" x="60.521" y="108.244" width="958.687" height="1100.108" filterUnits="userSpaceOnUse">
      <feOffset dy="3" input="SourceAlpha"/>
      <feGaussianBlur stdDeviation="49.5" result="blur-4"/>
      <feFlood flood-opacity="0.161"/>
      <feComposite operator="in" in2="blur-4"/>
      <feComposite in="SourceGraphic"/>
    </filter>
  </defs>
  <g id="Group_15964" data-name="Group 15964" transform="translate(-1267 -124)">
    <g transform="matrix(1, 0, 0, 1, 1267, 124)" filter="url(#Card_Base-2)">
      <rect id="Card_Base-4" data-name="Card Base" width="409" height="778" transform="translate(30 27)" fill="#9837ff"/>
    </g>
    <g id="Mask_Group_29" data-name="Mask Group 29" clip-path="url(#clip-path)">
      <g id="Group_15963" data-name="Group 15963">
        <g transform="matrix(1, 0, 0, 1, 1267, 124)" filter="url(#Rectangle_75)">
          <rect id="Rectangle_75-2" data-name="Rectangle 75" width="498" height="698" rx="71" transform="matrix(0.97, -0.26, 0.26, 0.97, 93.45, 562.34)" fill="#9837ff"/>
        </g>
        <g transform="matrix(1, 0, 0, 1, 1267, 124)" filter="url(#Rectangle_76)">
          <rect id="Rectangle_76-2" data-name="Rectangle 76" width="498" height="698" rx="71" transform="matrix(0.97, -0.26, 0.26, 0.97, 209.02, 382.64)" fill="#9837ff"/>
        </g>
      </g>
    </g>
  </g>
</svg>
