<svg xmlns="http://www.w3.org/2000/svg" width="258" height="91.054" viewBox="0 0 258 91.054">
  <g id="Group_7" data-name="Group 7" transform="translate(-140 -34)">
    <path id="Union_1" data-name="Union 1" d="M13.334,77.72A45.527,45.527,0,0,1,77.72,13.334,45.527,45.527,0,0,1,13.334,77.72ZM3.978,45.527A41.549,41.549,0,1,0,45.527,3.978,41.6,41.6,0,0,0,3.978,45.527ZM43.137,77.818c-1.422-.036-2.245-.786-2.272-2.034a2.078,2.078,0,0,1,2.25-2.229c2.163-.034,4.327-.009,6.489-.009h6.351c.465,0,1.023-.036,1.159.5.156.623-.394.85-.864,1.058a30.437,30.437,0,0,1-12.371,2.72C43.632,77.827,43.385,77.825,43.137,77.818Zm16.23-6.32a2.063,2.063,0,0,0-2.35-1.666c-4.937.016-9.875.005-14.812.005q-3.807,0-7.615,0c-1.869,0-2.862-.82-2.885-2.376-.026-1.739.963-2.7,2.913-2.708,3.785-.025,7.568-.007,11.353-.007v-.019q5.537,0,11.074,0c1.518,0,2.322-.61,2.329-1.732.007-1.179-.854-1.87-2.394-1.873q-7.892-.014-15.782,0a2.449,2.449,0,0,1-2.475-1.411A2.41,2.41,0,0,1,39.039,57a2.673,2.673,0,0,1,2.359-.877q7.406.02,14.812.005c.369,0,.74.013,1.107-.012,1.319-.086,2.167-.855,2.055-1.933a1.838,1.838,0,0,0-2.1-1.731c-1-.005-1.994,0-2.991,0-1.726,0-3.451,0-5.175-.022a2.482,2.482,0,0,1-2.542-1.936,2.407,2.407,0,0,1,1.094-2.744,2.443,2.443,0,0,1,1.584-.361q3.805.018,7.613,0c1.579-.009,2.575-.781,2.534-1.923-.039-1.084-1-1.821-2.5-1.834-1.218-.01-2.436-.006-3.653,0-1.274,0-2.549.008-3.822,0-1.874-.017-3.011-1.011-2.976-2.536.032-1.434,1.185-2.454,2.94-2.481,1.554-.026,3.11-.022,4.666-.019,1.029,0,2.057,0,3.087,0,1.339-.008,2.208-.691,2.267-1.727.061-1.075-.824-1.874-2.25-1.882-5.167-.026-10.336-.014-15.5-.013a2.9,2.9,0,0,1-2.708-1.055,2.4,2.4,0,0,1-.2-2.618,2.592,2.592,0,0,1,2.488-1.421c5.122.017,10.244.008,15.366.005a5.255,5.255,0,0,0,1.241-.042,1.771,1.771,0,0,0,1.547-1.7,1.711,1.711,0,0,0-1.541-1.83,9.238,9.238,0,0,0-1.578-.087h-.216q-10.592-.008-21.182,0c-2.178,0-3.179-.8-3.167-2.547.012-1.692,1.07-2.558,3.215-2.56q10.866-.018,21.734-.008c2.269,0,2.594-.246,2.755-2.447.068-.916.428-.884,1.033-.519.394.239.771.5,1.157.756.676.444,1.3.934,1.094,1.874-.2.881-.915,1.02-1.678,1.171a1.8,1.8,0,0,0,.281,3.555c1.891.03,3.783.027,5.676.04,1.773.01,2.883.933,2.931,2.437.051,1.554-1.074,2.631-2.877,2.672s-3.6.04-5.4.012a1.774,1.774,0,0,0-2.066,1.727,1.886,1.886,0,0,0,2.1,1.875c1.794.009,3.588.008,5.383.005q2.152,0,4.307,0c1.784.006,2.985,1.066,2.963,2.577-.021,1.431-1.183,2.423-2.948,2.436-1.991.014-3.981.01-5.972.008q-1.445,0-2.888,0a8.237,8.237,0,0,0-1.1.032,1.892,1.892,0,0,0-1.856,1.879c-.048.994.834,1.727,2.077,1.735,1.706.009,3.414.008,5.122.008,1.938,0,3.876,0,5.815.013,1.61.012,2.612.7,2.884,1.873A2.445,2.445,0,0,1,72.846,48c-3.323.012-6.645,0-9.968,0-.369,0-.74-.016-1.106.017-1.426.122-2.289.877-2.241,1.939a2.156,2.156,0,0,0,2.364,1.835c1.523.014,3.046-.006,4.568-.006,1.708,0,3.415-.01,5.122.01a2.39,2.39,0,0,1,2.685,2.359,2.541,2.541,0,0,1-2.634,2.607c-1.944.039-3.89.032-5.834.026q-1.168,0-2.333,0c-.508,0-1.016-.017-1.523,0-1.632.042-2.423.66-2.407,1.868.016,1.159.846,1.777,2.471,1.791.7.007,1.41,0,2.116,0,.955-.007,1.91-.013,2.867.009,1.892.044,2.952,1.024,2.9,2.6-.045,1.5-1.135,2.406-2.927,2.416-.775.005-1.548,0-2.322,0-.933,0-1.866-.007-2.8.005-1.281.013-2.32.747-2.312,1.717A1.842,1.842,0,0,0,61.4,69.164a1.3,1.3,0,0,1,1.271,1.084,1.438,1.438,0,0,1-.647,1.557c-.227.157-.454.317-.684.47-.69.461-1.079.723-1.33.723C59.683,73,59.592,72.544,59.367,71.5ZM34.319,52.475a2.428,2.428,0,0,1-2.627-2.556,2.338,2.338,0,0,1,2.621-2.533c2.26-.035,4.522-.027,6.782,0a2.537,2.537,0,1,1,.14,5.066c-1.2.069-2.4.013-3.6.013v.016c-.676,0-1.353.01-2.03.01C35.178,52.493,34.748,52.489,34.319,52.475Zm6.55-8.812a2.551,2.551,0,0,1-2.467-2.6,2.587,2.587,0,0,1,2.773-2.449,2.616,2.616,0,0,1,2.4,2.686,2.579,2.579,0,0,1-2.584,2.369ZM28.7,43.641V43.62c-1.476,0-2.953.013-4.429,0a2.474,2.474,0,0,1-2.554-2.359A2.415,2.415,0,0,1,23.9,38.67c1.066-.1,2.142-.094,3.218-.088q.532,0,1.067,0c1.708-.008,3.416-.031,5.121.019a2.568,2.568,0,0,1,2.7,2.56,2.524,2.524,0,0,1-2.745,2.471c-.594.012-1.188.016-1.781.016C30.554,43.65,29.624,43.641,28.7,43.641ZM56.017,17.47c-.094,0-.187-.009-.273-.008-2.074.014-4.147.005-6.221.005v.005c-2.074,0-4.147.014-6.221-.005-1.5-.014-2.4-.8-2.424-2.065-.029-1.379.81-2.125,2.421-2.168a29.853,29.853,0,0,1,12.726,2.593c.491.212,1.189.367,1.077,1.066-.082.507-.438.585-.82.585C56.193,17.478,56.1,17.474,56.017,17.47Z" transform="translate(140 34)"/>
    <text id="Duokast" transform="translate(253 94)" font-size="40" font-family="SegoeUI, Segoe UI"><tspan x="0" y="0">Duokast</tspan></text>
  </g>
</svg>
