<svg xmlns="http://www.w3.org/2000/svg" width="84" height="80" viewBox="0 0 84 80">
  <rect id="Rectangle_20" data-name="Rectangle 20" width="84" height="80" rx="21" fill="#3d1b61"/>
  <path id="icons8_microsoft_hololens" d="M23.381,9a87.893,87.893,0,0,0-12.612.728c-3.49.527-6.2,1.26-7.908,2.971A2.941,2.941,0,0,0,2,14.781v3.7a16.186,16.186,0,0,0,2.521,9.029,9.731,9.731,0,0,0,8.17,4.4h1.527A9.913,9.913,0,0,0,21.639,28.3a4.852,4.852,0,0,1,.832-.868,1.4,1.4,0,0,1,.91-.185,1.394,1.394,0,0,1,.91.185,4.931,4.931,0,0,1,.835.871,9.9,9.9,0,0,0,7.418,3.6h1.527a9.731,9.731,0,0,0,8.17-4.4,16.185,16.185,0,0,0,2.521-9.029v-3.7A2.938,2.938,0,0,0,43.9,12.7c-1.711-1.711-4.418-2.444-7.908-2.971A87.893,87.893,0,0,0,23.381,9Zm0,3.054a85.737,85.737,0,0,1,12.155.692c3.207.484,5.422,1.365,6.172,2.094v3.636a13.4,13.4,0,0,1-1.993,7.314,6.4,6.4,0,0,1-5.644,3.063H32.545a7.506,7.506,0,0,1-5.071-2.5l0,0a6.573,6.573,0,0,0-1.521-1.482,4.732,4.732,0,0,0-2.568-.671,4.733,4.733,0,0,0-2.568.671,6.541,6.541,0,0,0-1.521,1.485,7.513,7.513,0,0,1-5.074,2.5H12.691A6.4,6.4,0,0,1,7.047,25.79a13.4,13.4,0,0,1-1.993-7.314V14.84c.75-.729,2.964-1.61,6.172-2.094A85.736,85.736,0,0,1,23.381,12.054Zm-3.054,3.054a1.527,1.527,0,1,0,0,3.054h6.109a1.527,1.527,0,0,0,0-3.054Z" transform="translate(19.025 19.335)" fill="#fff"/>
</svg>
