<svg xmlns="http://www.w3.org/2000/svg" width="84" height="80" viewBox="0 0 84 80">
  <rect id="Rectangle_21" data-name="Rectangle 21" width="84" height="80" rx="21" fill="#3d1b61"/>
  <path id="icons8_smartphone_tablet" d="M2.744,1A2.746,2.746,0,0,0,0,3.744V29.813a2.746,2.746,0,0,0,2.744,2.744H17.15V27.069H3.43V4.43H21.267V9.918H24.7V3.744A2.746,2.746,0,0,0,21.953,1Zm17.15,9.6a2.062,2.062,0,0,0-2.058,2.058V32.557a2.062,2.062,0,0,0,2.058,2.058H32.243A2.062,2.062,0,0,0,34.3,32.557V12.662A2.062,2.062,0,0,0,32.243,10.6Zm1.372,3.43h9.6V29.127h-9.6ZM12.348,28.441a1.029,1.029,0,1,1-1.029,1.029A1.029,1.029,0,0,1,12.348,28.441ZM26.069,30.5a1.029,1.029,0,1,1-1.029,1.029A1.029,1.029,0,0,1,26.069,30.5Z" transform="translate(24.761 22.866)" fill="#fff"/>
</svg>
