<svg xmlns="http://www.w3.org/2000/svg" width="84" height="80" viewBox="0 0 84 80">
  <rect id="Rectangle_28" data-name="Rectangle 28" width="84" height="80" rx="21" fill="#3d1b61"/>
  <path id="icons8_analyze" d="M7.372,2A3.382,3.382,0,0,0,4,5.372V32.345a3.382,3.382,0,0,0,3.372,3.372h9.3a11.45,11.45,0,0,1-1.821-3.372H7.372V5.372H27.6V15.536l3.372.692V5.372A3.382,3.382,0,0,0,27.6,2Zm3.372,8.429V13.8H24.23V10.429Zm0,6.743v3.372h5.933a11.987,11.987,0,0,1,3.81-3.372Zm16.015,1.686a9.3,9.3,0,0,0-9.272,9.272,8.528,8.528,0,0,0,.063,1.037,9.255,9.255,0,0,0,14.458,6.6l3.253,3.253,2.384-2.384-3.253-3.253a9.26,9.26,0,0,0-7.632-14.521Zm.843,3.454a5.889,5.889,0,1,1-6.664,6.661H27.6Zm-16.858,1.6v3.372h3.421a10.726,10.726,0,0,1,.692-3.372Z" transform="translate(21.624 19.985)" fill="#fff"/>
</svg>
