<svg xmlns="http://www.w3.org/2000/svg" width="84" height="80" viewBox="0 0 84 80">
  <rect id="Rectangle_29" data-name="Rectangle 29" width="84" height="80" rx="21" fill="#3d1b61"/>
  <path id="icons8_puzzle" d="M21.688,2a5.116,5.116,0,0,0-5.1,5.1H11.07A2.993,2.993,0,0,0,8.1,10.07v5.522a5.1,5.1,0,1,0,0,10.194v5.522A2.993,2.993,0,0,0,11.07,34.28h5.522a5.1,5.1,0,0,0,10.194,0h5.522a2.993,2.993,0,0,0,2.973-2.973v-6.8a1.274,1.274,0,0,0-1.274-1.274H31.882a2.548,2.548,0,1,1,0-5.1h2.124a1.274,1.274,0,0,0,1.274-1.274v-6.8A2.993,2.993,0,0,0,32.307,7.1H26.785A5.116,5.116,0,0,0,21.688,2Zm0,2.548A2.53,2.53,0,0,1,24.237,7.1V8.371a1.274,1.274,0,0,0,1.274,1.274h6.8a.406.406,0,0,1,.425.425v5.522h-.849a5.1,5.1,0,1,0,0,10.194h.849v5.522a.406.406,0,0,1-.425.425h-6.8a1.274,1.274,0,0,0-1.274,1.274V34.28a2.548,2.548,0,0,1-5.1,0V33.005a1.274,1.274,0,0,0-1.274-1.274h-6.8a.406.406,0,0,1-.425-.425v-6.8a1.274,1.274,0,0,0-1.274-1.274H8.1a2.548,2.548,0,1,1,0-5.1H9.371a1.274,1.274,0,0,0,1.274-1.274v-6.8a.406.406,0,0,1,.425-.425h6.8A1.274,1.274,0,0,0,19.14,8.371V7.1A2.53,2.53,0,0,1,21.688,4.548Z" transform="translate(22.942 19.985)" fill="#fff"/>
</svg>
