<svg xmlns="http://www.w3.org/2000/svg" width="84" height="80" viewBox="0 0 84 80">
  <g id="Group_758" data-name="Group 758" transform="translate(-158 -3184)">
    <rect id="Rectangle_31" data-name="Rectangle 31" width="84" height="80" rx="21" transform="translate(158 3184)" fill="#3d1b61"/>
    <path id="icons8_live_video_on" d="M10.642,9A6.665,6.665,0,0,0,4,15.642v17.37a6.665,6.665,0,0,0,6.642,6.642h17.37a6.665,6.665,0,0,0,6.642-6.642V31.633l7.9,4.738a1.533,1.533,0,0,0,2.321-1.315V13.6a1.533,1.533,0,0,0-2.321-1.315l-7.9,4.738V15.642A6.665,6.665,0,0,0,28.012,9Zm0,3.065h17.37a3.554,3.554,0,0,1,3.576,3.576v17.37a3.554,3.554,0,0,1-3.576,3.576H10.642a3.554,3.554,0,0,1-3.576-3.576V15.642A3.554,3.554,0,0,1,10.642,12.065Zm31.164,4.241V32.347l-7.152-4.291V20.6ZM19.327,19.218a5.109,5.109,0,1,0,5.109,5.109A5.115,5.115,0,0,0,19.327,19.218Z" transform="translate(175.129 3199.347)" fill="#fff"/>
  </g>
</svg>
