<svg xmlns="http://www.w3.org/2000/svg" width="41.081" height="41.081" viewBox="0 0 41.081 41.081">
  <circle id="Ellipse_20" data-name="Ellipse 20" cx="20.541" cy="20.541" r="20.541" fill="#00c4cc"/>
  <g id="twitter-line" transform="translate(12.73 14.942)">
    <path id="Path_46" data-name="Path 46" d="M0,12.761a10.076,10.076,0,0,0,4.493-1.354c-1.2-.794-6-3.615-2.849-11.2a12.278,12.278,0,0,0,4.5,3.526,5.123,5.123,0,0,0,1.723.47h0a4.28,4.28,0,0,1,7.323-2.93c.1,0,.19,0,.286.006A3.135,3.135,0,0,0,17.52.709a6.3,6.3,0,0,1-1.06,2.909c0,6.675-4.1,9.921-8.265,10.752A9.775,9.775,0,0,1,6.3,14.54C3.755,14.54.944,13.748,0,12.761Z" transform="translate(0 0)" fill="#fff"/>
  </g>
</svg>
