<svg xmlns="http://www.w3.org/2000/svg" width="84" height="80" viewBox="0 0 84 80">
  <rect id="Rectangle_18" data-name="Rectangle 18" width="84" height="80" rx="21" fill="#3d1b61"/>
  <path id="icons8_increase_profits" d="M28.24,3a3.144,3.144,0,0,0-2.868,4.455l-4.717,6.6q-.151-.015-.3-.015a3.155,3.155,0,0,0-.817.108l-4.027-4.027a3.153,3.153,0,1,0-5.872.582L6.355,15.629q-.1-.008-.2-.009a3.158,3.158,0,1,0,2.828,1.759l3.281-4.923q.1.008.2.009a3.155,3.155,0,0,0,.816-.108l4.027,4.027a3.154,3.154,0,1,0,5.913-.49l4.717-6.6q.151.015.3.015a3.155,3.155,0,1,0,0-6.31ZM3,28.24v3.155H31.395V28.24Z" transform="translate(24.803 22.803)" fill="#fff"/>
</svg>
