<svg xmlns="http://www.w3.org/2000/svg" width="84" height="80" viewBox="0 0 84 80">
  <rect id="Rectangle_19" data-name="Rectangle 19" width="84" height="80" rx="21" fill="#3d1b61"/>
  <path id="icons8_china" d="M38.917,4a4.987,4.987,0,0,0-2.179.446h0a1.9,1.9,0,0,0-1.068,2.667h0a2.236,2.236,0,0,1,.156.942c-.011.2-.192.532-.355,1.178l0,0a3.432,3.432,0,0,0-.137.7c-.038,0-.147.037-.4.072a2.565,2.565,0,0,0-.818.212,1.7,1.7,0,0,0-.85.984,3.36,3.36,0,0,0-.1,1.333,2.594,2.594,0,0,0,.154.673,1.309,1.309,0,0,0,.612.751,1.894,1.894,0,0,0,.906.189c-.341.225-.767.375-1.081.631l0,0a3.654,3.654,0,0,1-.883.593,2.022,2.022,0,0,1-.4.042,2.691,2.691,0,0,0-1.018.181,1.822,1.822,0,0,0-.911.852,2.178,2.178,0,0,0-.193.888c-.02.468-.059.665-.027.614a3.118,3.118,0,0,1-1.272.5h0c-1.029.256-1.935.607-2.764.751a5.334,5.334,0,0,1-2.646-.414,16.584,16.584,0,0,0-2.938-.581,1.606,1.606,0,0,1-.8-.267c.034.04.016-.263-.385-.854a3.285,3.285,0,0,0-1.169-.993c-.394-.234-.777-.428-.969-.551a7.036,7.036,0,0,1-.835-.57c-.079-.086-.119-.1-.137-.547,0,0,0,0,0,0a3.7,3.7,0,0,0-1.228-2.648c-.089-.084-.194-.347-.551-.764a1.615,1.615,0,0,0-.923-.547,1.83,1.83,0,0,0-1.157.225,2.558,2.558,0,0,0-1.091,1.233,1.421,1.421,0,0,1-.166.3l-.034-.013a2.093,2.093,0,0,0-1.6-.189A1.993,1.993,0,0,0,8.507,13.3c-.082.277-.088.289-.08.3-.059,0-.107,0-.248-.009a1.984,1.984,0,0,0-.871.091,1.706,1.706,0,0,0-.927.915,2.555,2.555,0,0,0-.126,1.277c.014.2.053.047.008.1a4.125,4.125,0,0,1-1.87.738,4.293,4.293,0,0,1-1.239.162H3.146a4.239,4.239,0,0,0-1.23-.172A2.039,2.039,0,0,0,.21,17.757a2.6,2.6,0,0,0-.154,1.63,7.01,7.01,0,0,1,.162,1.788c-.027.048-.085.082-.1.128a1,1,0,0,0-.023.7.925.925,0,0,0,.419.677c.039.036.064.065.082.084.134.192.255.471.528.871,0,0,0,0,0,0a2.263,2.263,0,0,0,1.8.913c.513-.014.794-.079.946-.053.058.01.052.15,0,.212a2.955,2.955,0,0,1-.54.335,2.215,2.215,0,0,0-1.028,1.5,4.157,4.157,0,0,0,.379,2.9s0,0,0,0a5.892,5.892,0,0,0,2.065,1.861A13.345,13.345,0,0,1,6.428,32.8a6.178,6.178,0,0,0,2.417,1.521s0,0,0,0A8.532,8.532,0,0,0,12,34.5a2.143,2.143,0,0,1,.778.271,2.988,2.988,0,0,0,1.811.383,4.779,4.779,0,0,0,1.373-.475,3.241,3.241,0,0,1,.892-.32,3.422,3.422,0,0,1,.6-.042s0,0,.006.01a2.693,2.693,0,0,0,.484.477,4.294,4.294,0,0,0,1.182.572c.232.1.231.079.316.244l0,0c.117.227.1.221.006.425a7.131,7.131,0,0,1-.633.932,3.3,3.3,0,0,0-.627.989,1.561,1.561,0,0,0-.017,1.083,1.69,1.69,0,0,0,.822.873l0,0c.393.2.414.321.473.538a2.959,2.959,0,0,1,.067.41,1.721,1.721,0,0,0,.175.713v0a1.232,1.232,0,0,0,.723.658,3.549,3.549,0,0,0,.6.208c.376.1.8.189.761.177-.058-.018.13.1.463.261a1.353,1.353,0,0,0,1.716-.317,1.639,1.639,0,0,0,.376-.951c.03-.194.059-.277.027-.213.867-.041,1.695-.142,2.124-.2a3.45,3.45,0,0,1,.738-.046c.069.014.03-.045.156.16a3.421,3.421,0,0,0,.831,1.043,2.388,2.388,0,0,0,1.613.423h0a4.01,4.01,0,0,0,.866-.153,1.963,1.963,0,0,0,.179.7,1.108,1.108,0,0,0,.274.391,1.183,1.183,0,0,0,1.01.252,1.02,1.02,0,0,0,.633-.49,1.724,1.724,0,0,0,.185-.4h0a1.081,1.081,0,0,0,.052-.585,7.034,7.034,0,0,0,1.887-.723,1.993,1.993,0,0,0,.7-.877,3.544,3.544,0,0,0,1.041.168A3.32,3.32,0,0,0,38.3,40.5a10.691,10.691,0,0,0,3.891-5.268v0a8.38,8.38,0,0,0,.223-6.007v0a6.592,6.592,0,0,0-1.969-2.766,4.493,4.493,0,0,0-.419-.318,1.589,1.589,0,0,1,.906-1.026,3.9,3.9,0,0,0,.8-.465,1.383,1.383,0,0,0,.551-.757,1.449,1.449,0,0,0-.379-1.3,1.79,1.79,0,0,0-1.619-.349,4.249,4.249,0,0,0-1.043.48c-.138.079-.188.1-.292.152-.041-.061-.01-.077-.072-.143a.906.906,0,0,0-.33-.206,1.612,1.612,0,0,0,.522-.459c.345-.468.584-.881.759-1.058s.107-.189.414-.124a5.515,5.515,0,0,0,.663.355,1.921,1.921,0,0,0,1.819.164,2.3,2.3,0,0,0,1.123-1.538,3.491,3.491,0,0,1,.229-.551,2.238,2.238,0,0,0,1.153-.551l0,0a2.122,2.122,0,0,0,.572-.818c.066-.168.045-.123.05-.128.12-.127.422-.305.8-.643a2.45,2.45,0,0,0,.81-1.729,2.9,2.9,0,0,0-.233-1.1c.039-.019.066-.034.156-.072a2.147,2.147,0,0,0,1.125-.925v0a2.777,2.777,0,0,0,.316-1.264c0-.392-.036-.751-.044-1.34a2.518,2.518,0,0,0-.133-.864,1.449,1.449,0,0,0-.682-.791,1.411,1.411,0,0,0-.928-.1,2.42,2.42,0,0,0-.589.219c-.336.167-.623.353-.864.477A1.222,1.222,0,0,1,45.3,9.8a2.809,2.809,0,0,1-.252-.227c-.242-.244-.463-.527-.742-.785a7.145,7.145,0,0,0-1.2-.841,3.2,3.2,0,0,1-.906-.8,5.1,5.1,0,0,1-.648-1.405,3.75,3.75,0,0,0-.393-.86,1.735,1.735,0,0,0-1.07-.747A6,6,0,0,0,38.917,4Zm0,1.952a3.551,3.551,0,0,1,.641.078,2.769,2.769,0,0,1,.154.364,6.338,6.338,0,0,0,.948,1.952,5.387,5.387,0,0,0,1.394,1.245,6.824,6.824,0,0,1,.923.627c.043.04.357.4.683.728a4.3,4.3,0,0,0,.553.484,1.537,1.537,0,0,0,.913.353,2.562,2.562,0,0,0,1.356-.364c.155-.08.239-.13.368-.2.013.325.03.706.029.848a.459.459,0,0,1-.08.349c.02-.037.062-.041-.17.057a2.138,2.138,0,0,0-1.094.8,1.978,1.978,0,0,0-.179,1.609c.1.357.158.55.158.547,0,.2,0,.148-.158.294a7.491,7.491,0,0,0-.915.757,2.253,2.253,0,0,0-.454.759c-.012.032-.006.023-.008.031a2.011,2.011,0,0,0-.974.423h0a2.61,2.61,0,0,0-1.007,1.563,2.51,2.51,0,0,1-.116.294.491.491,0,0,1-.067-.03,3.491,3.491,0,0,0-1.161-.536,2.491,2.491,0,0,0-2.21.662,7.7,7.7,0,0,0-.9,1.213c-.012.017-.028.045-.04.061h0c.044-.06.055-.073.042-.061a.684.684,0,0,1-.1.08c-.1.066-.257.153-.425.255a3.311,3.311,0,0,0-.543.391,1.264,1.264,0,0,0-.482,1.054,1.441,1.441,0,0,0,.677,1.112,3.063,3.063,0,0,0,.473.255h0l0,0a1.28,1.28,0,0,0,.3.12.667.667,0,0,0,.179.381s0,0,0,0a1.487,1.487,0,0,0,.867.471,3.666,3.666,0,0,0-.294.49,2.154,2.154,0,0,0-.156.913,1.682,1.682,0,0,0,.335.871,3.451,3.451,0,0,0,.85.728h0a4.793,4.793,0,0,1,1.371,1.946,6.514,6.514,0,0,1-.223,4.61,9.079,9.079,0,0,1-3.125,4.326,1.2,1.2,0,0,1-.665.263,3.152,3.152,0,0,1-.869-.168h0c-.047-.014-.073-.023-.149-.048a.994.994,0,0,0-.589-.042,1.144,1.144,0,0,0-.621.374c-.082.095-.113.142-.16.206a1.908,1.908,0,0,0-.328.7,10.554,10.554,0,0,0-1.925.728c-.03.018-.053.054-.082.072a1.789,1.789,0,0,0-.967-.3,8.019,8.019,0,0,0-1.19.2c-.3.022-.256,0-.276-.015a3.649,3.649,0,0,1-.368-.528,2.322,2.322,0,0,0-1.418-1.045,3.854,3.854,0,0,0-1.39.021c-.444.058-1.252.161-2.057.193a1.974,1.974,0,0,0-1.581,1.091.937.937,0,0,0-.072.288c-.081-.035-.062-.052-.166-.084h0c-.323-.1-.572-.128-.833-.2-.037-.01-.047-.016-.08-.027a3.653,3.653,0,0,0-.1-.589,2.957,2.957,0,0,0-1.174-1.521c.069-.1.1-.135.215-.3a6.5,6.5,0,0,0,.843-1.3,2.517,2.517,0,0,0-.059-2.11,2.6,2.6,0,0,0-1.306-1.153,4.7,4.7,0,0,1-.763-.334h0c-.014-.011-.054-.062-.21-.231a2.06,2.06,0,0,0-.854-.553,2.977,2.977,0,0,0-1.487-.023,5.041,5.041,0,0,0-1.426.482,3.2,3.2,0,0,1-.841.313,1.5,1.5,0,0,1-.679-.219,3.33,3.33,0,0,0-1.729-.454,7.855,7.855,0,0,1-2.452-.1h0a4.181,4.181,0,0,1-1.659-1.079,13.558,13.558,0,0,0-1.954-1.7s0,0,0,0A4.069,4.069,0,0,1,4.343,28.42c-.266-.433-.215-.8-.107-1.624,0,0,0,0,0,0a.051.051,0,0,0,0-.031.2.2,0,0,0,.08-.032A2.986,2.986,0,0,0,5.4,25.919a2.09,2.09,0,0,0-1.216-3.346,4.4,4.4,0,0,0-1.323.029c-.186.005-.013.108-.128-.065l0,0c-.138-.2-.29-.539-.574-.932,0-.009.018-.02.019-.029v0a8.385,8.385,0,0,0-.2-2.524,1.214,1.214,0,0,1-.01-.408c.014,0,0,.007.023.006a6.739,6.739,0,0,0,1.029.17,5.9,5.9,0,0,0,1.809-.208,4.881,4.881,0,0,0,2.907-1.361,2.192,2.192,0,0,0,.467-1.51,1.859,1.859,0,0,1-.006-.2,2.472,2.472,0,0,0,.553,0,1.8,1.8,0,0,0,1.062-.509,2.012,2.012,0,0,0,.532-1.1.7.7,0,0,0,.147.072,2.375,2.375,0,0,0,.709.206,1.759,1.759,0,0,0,1.081-.248,2.521,2.521,0,0,0,.932-1.2.58.58,0,0,1,.139-.21,2.063,2.063,0,0,0,.48.635c.625.591.585.466.62,1.312a2.815,2.815,0,0,0,.65,1.79,5.272,5.272,0,0,0,1.22.89c.346.222.715.4,1.026.587a3.056,3.056,0,0,1,.547.408,1.849,1.849,0,0,0,.526,1.037,3.016,3.016,0,0,0,1.971.917,16.073,16.073,0,0,1,2.623.505h0a7.117,7.117,0,0,0,3.6.486c1.091-.19,2.04-.565,2.9-.78A3.448,3.448,0,0,0,31.971,19a2.553,2.553,0,0,0,.328-1.577.166.166,0,0,1,0-.029,1.525,1.525,0,0,1,.254-.025,2.912,2.912,0,0,0,1.016-.172,5.055,5.055,0,0,0,1.418-.906v0a5.306,5.306,0,0,1,1.88-1.129,2.1,2.1,0,0,0,.8-.427,1.25,1.25,0,0,0-.185-2.061,2.279,2.279,0,0,0-.831-.305s0,0,0,0a6.067,6.067,0,0,0-1.239-.053,1.208,1.208,0,0,1-.311-.032,1.76,1.76,0,0,1,.019-.326.693.693,0,0,1,.072-.013,2.2,2.2,0,0,0,1.7-.8,2.583,2.583,0,0,0,.467-1.439,5.236,5.236,0,0,0,.412-1.552,3.666,3.666,0,0,0-.332-1.828c.012-.033.045-.076.147-.126A4.022,4.022,0,0,1,38.917,5.952ZM1.958,21.934c-.006.02.006,0,0,.027S1.913,22,1.9,22.03C1.922,21.994,1.94,21.97,1.958,21.934Zm42.337,14.28a.623.623,0,0,0-.179.044c-.636.251-1.167,1.906-1.167,2.395a2.4,2.4,0,0,0,1.274,1.464c.3,0,.213-.756.532-1.174a.627.627,0,0,0,.143-.29c.006-.041,0-1.305,0-1.464C44.879,36.632,44.685,36.183,44.295,36.214Zm-9.313,8.8a3.349,3.349,0,0,0-1.609.385c-.462.216-1.161.109-1.161,1.356a1.25,1.25,0,0,0,1.247,1.174c.673-.018,1.042-.63,1.3-1.464.132-.427.383-.394.383-1.323C35.14,45.071,35.082,45.03,34.982,45.01Z" transform="translate(17.374 14.235)" fill="#fff"/>
</svg>
