<svg xmlns="http://www.w3.org/2000/svg" width="84" height="80" viewBox="0 0 84 80">
  <rect id="Rectangle_27" data-name="Rectangle 27" width="84" height="80" rx="21" fill="#3d1b61"/>
  <path id="icons8_one_way_transition" d="M27.425,4a13.332,13.332,0,0,0-12.389,8.458,15.1,15.1,0,0,1,2.284-.19c.273,0,.54.027.809.041A10.562,10.562,0,1,1,32.437,26.616c.015.269.041.536.041.809a15.1,15.1,0,0,1-.19,2.284A13.313,13.313,0,0,0,27.425,4Zm-1.837,7.349a1.378,1.378,0,1,0,0,2.756h3.1L17.265,25.532a1.378,1.378,0,1,0,1.948,1.948L30.64,16.054v3.1a1.378,1.378,0,1,0,2.756,0v-6.43a1.378,1.378,0,0,0-1.378-1.378ZM17.32,14.105a13.369,13.369,0,1,0,11.4,6.466L26.7,22.59a10.592,10.592,0,1,1-4.547-4.547l2.018-2.019A13.225,13.225,0,0,0,17.32,14.105Z" transform="translate(19.985 17.985)" fill="#fff"/>
</svg>
