<svg xmlns="http://www.w3.org/2000/svg" xmlns:xlink="http://www.w3.org/1999/xlink" width="254.3" height="254.3" viewBox="0 0 254.3 254.3">
  <defs>
    <filter id="Ellipse_188" x="0" y="0" width="254.3" height="254.3" filterUnits="userSpaceOnUse">
      <feOffset dy="12" input="SourceAlpha"/>
      <feGaussianBlur stdDeviation="24" result="blur"/>
      <feFlood flood-color="#929292" flood-opacity="0.161"/>
      <feComposite operator="in" in2="blur"/>
      <feComposite in="SourceGraphic"/>
    </filter>
  </defs>
  <g transform="matrix(1, 0, 0, 1, 0, 0)" filter="url(#Ellipse_188)">
    <circle id="Ellipse_188-2" data-name="Ellipse 188" cx="55.15" cy="55.15" r="55.15" transform="translate(72 60)" fill="#fff"/>
  </g>
  <path id="icons8_administrative_tools" d="M14.114,2,13.33,6.017A12.74,12.74,0,0,0,9.751,8.074L5.893,6.746,2.174,13.187l3.09,2.689v0a12.855,12.855,0,0,0-.18,2.054,12.907,12.907,0,0,0,.18,2.057l-3.09,2.689,3.719,6.439,3.859-1.329v0a12.665,12.665,0,0,0,3.3,1.923V26.2a9.118,9.118,0,0,1-1.276-.874L10.4,24.2,7.337,25.252,6.244,23.36l2.449-2.129L8.41,19.483a9.751,9.751,0,0,1-.14-1.55,9.583,9.583,0,0,1,.14-1.55l.283-1.752L6.244,12.506l1.092-1.892L10.4,11.669l1.375-1.13A9.514,9.514,0,0,1,14.457,9l1.662-.629.619-3.184h2.181l.622,3.184L21.2,9a9.536,9.536,0,0,1,2.682,1.534l1.376,1.136,3.062-1.055,1.092,1.889-2.449,2.129.283,1.752a9.7,9.7,0,0,1,.14,1.547h3.187a12.907,12.907,0,0,0-.181-2.057l3.09-2.689L29.767,6.749,25.908,8.074A12.7,12.7,0,0,0,22.33,6.017L21.546,2Zm3.716,9.56a6.368,6.368,0,0,0-4.478,10.9,6.328,6.328,0,0,1,1.783-2.841,3.184,3.184,0,1,1,5.882-1.687H24.2A6.38,6.38,0,0,0,17.83,11.56Zm1.593,9.56a3.186,3.186,0,0,0-3.187,3.187V37.053H36.95V24.306a3.186,3.186,0,0,0-3.187-3.187Zm10.493,3.187,2.253,2.253-5.713,5.713h-5.44V29.086h4.12Z" transform="translate(107.826 96)" fill="#9726ec"/>
</svg>
