<svg xmlns="http://www.w3.org/2000/svg" xmlns:xlink="http://www.w3.org/1999/xlink" width="254.3" height="254.3" viewBox="0 0 254.3 254.3">
  <defs>
    <filter id="Ellipse_190" x="0" y="0" width="254.3" height="254.3" filterUnits="userSpaceOnUse">
      <feOffset dy="12" input="SourceAlpha"/>
      <feGaussianBlur stdDeviation="24" result="blur"/>
      <feFlood flood-color="#929292" flood-opacity="0.161"/>
      <feComposite operator="in" in2="blur"/>
      <feComposite in="SourceGraphic"/>
    </filter>
  </defs>
  <g transform="matrix(1, 0, 0, 1, 0, 0)" filter="url(#Ellipse_190)">
    <circle id="Ellipse_190-2" data-name="Ellipse 190" cx="55.15" cy="55.15" r="55.15" transform="translate(72 60)" fill="#fff"/>
  </g>
  <path id="icons8_media" d="M35.291,3.014a2.11,2.11,0,0,0-.566.006,1.979,1.979,0,0,0-1.047.484l-3.83,3.479,0,0H27.5a3.523,3.523,0,0,0-3.5,3.5v3.027a3.523,3.523,0,0,0,3.5,3.5h2.344l0,0,3.83,3.479A1.987,1.987,0,0,0,37,19.025V4.975a2.04,2.04,0,0,0-1.182-1.816A1.891,1.891,0,0,0,35.291,3.014Zm5.8,2.914a1.5,1.5,0,0,0-1.219,2.357,6.5,6.5,0,0,1,0,7.322,1.5,1.5,0,1,0,2.486,1.678,9.5,9.5,0,0,0,0-10.678,1.5,1.5,0,0,0-1.268-.68ZM34,7.264v9.473l-2.121-1.926a2.966,2.966,0,0,0-2.021-.8H27.5a.478.478,0,0,1-.5-.5V10.486a.478.478,0,0,1,.5-.5h2.357a2.967,2.967,0,0,0,2.021-.8l-.014.016ZM9,10a5.006,5.006,0,0,0-5,5V32a5.006,5.006,0,0,0,5,5H20V34H9a2,2,0,0,1-2-2V15a2,2,0,0,1,2-2H22V10Zm5.494,8A1.5,1.5,0,0,0,13,19.5v8a1.5,1.5,0,0,0,2.244,1.3l7-4a1.5,1.5,0,0,0,0-2.605l-7-4A1.5,1.5,0,0,0,14.494,18ZM28,19.014V26h3V20.766l-1.93-1.752ZM25.5,28A3.523,3.523,0,0,0,22,31.5v9A3.523,3.523,0,0,0,25.5,44h14A3.523,3.523,0,0,0,43,40.5v-9A3.523,3.523,0,0,0,39.5,28Zm0,3h14a.478.478,0,0,1,.5.5v.117l-7.5,4.166L25,31.617V31.5A.478.478,0,0,1,25.5,31ZM25,35.049l6.771,3.762a1.5,1.5,0,0,0,1.457,0L40,35.049V40.5a.478.478,0,0,1-.5.5h-14a.478.478,0,0,1-.5-.5Z" transform="translate(103 92.002)" fill="#2bd67b"/>
</svg>
