<svg xmlns="http://www.w3.org/2000/svg" width="96.549" height="96.55" viewBox="0 0 96.549 96.55">
  <rect id="Rectangle_204" data-name="Rectangle 204" width="96.55" height="96.55" rx="8" fill="#f2f2f2"/>
  <g id="headphone-fill" transform="translate(24.138 24.137)">
    <path id="Path_48" data-name="Path 48" d="M0,0H48.275V48.275H0Z" fill="none"/>
    <path id="Path_49" data-name="Path 49" d="M4.345,22.232h6.517a4.4,4.4,0,0,1,4.345,4.446V37.794a4.4,4.4,0,0,1-4.345,4.446H4.345A4.4,4.4,0,0,1,0,37.794V22.232A21.982,21.982,0,0,1,21.724,0,21.982,21.982,0,0,1,43.447,22.232V37.794A4.4,4.4,0,0,1,39.1,42.24H32.585a4.4,4.4,0,0,1-4.345-4.446V26.678a4.4,4.4,0,0,1,4.345-4.446H39.1A17.586,17.586,0,0,0,21.724,4.446,17.586,17.586,0,0,0,4.345,22.232Z" transform="translate(2.414 2.414)" fill="#9837ff"/>
  </g>
</svg>
