<svg xmlns="http://www.w3.org/2000/svg" width="96.549" height="96.55" viewBox="0 0 96.549 96.55">
  <rect id="Rectangle_205" data-name="Rectangle 205" width="96.55" height="96.55" rx="8" fill="#f2f2f2"/>
  <g id="phone-fill" transform="translate(24.138 24.137)">
    <path id="Path_46" data-name="Path 46" d="M0,0H48.275V48.275H0Z" fill="none"/>
    <path id="Path_47" data-name="Path 47" d="M36.458,27.181v7.162a2.025,2.025,0,0,1-1.884,2.021c-.885.061-1.608.093-2.167.093A32.406,32.406,0,0,1,0,4.051q0-.839.093-2.167A2.025,2.025,0,0,1,2.115,0H9.276a1.013,1.013,0,0,1,1.009.911c.047.466.089.837.13,1.118a28.156,28.156,0,0,0,2.447,8.1.923.923,0,0,1-.3,1.148L8.193,14.4A26.426,26.426,0,0,0,22.055,28.267L25.174,23.9a.936.936,0,0,1,1.161-.3,28.155,28.155,0,0,0,8.1,2.441c.282.041.652.085,1.114.13a1.013,1.013,0,0,1,.909,1.009Z" transform="translate(5.909 5.909)" fill="#00c4cc"/>
  </g>
</svg>
